<svg width="366" height="432" viewBox="0 0 366 432" fill="none" xmlns="http://www.w3.org/2000/svg">
<g clip-path="url(#clip0_543_499)">
<path d="M194.545 23.7339L196.365 318.17" stroke="#DBDBDB" stroke-width="16" stroke-miterlimit="10" stroke-linecap="round"/>
<path d="M157.383 46.0269L192.862 82.5093" stroke="#DBDBDB" stroke-width="16" stroke-miterlimit="10" stroke-linecap="round"/>
<path d="M159.21 102.208L195.256 139.276" stroke="#DBDBDB" stroke-width="16" stroke-miterlimit="10" stroke-linecap="round"/>
<path d="M158.542 336.64L193.733 299.87" stroke="#DBDBDB" stroke-width="16" stroke-miterlimit="10" stroke-linecap="round"/>
<path d="M159.947 286.748L195.696 249.393" stroke="#DBDBDB" stroke-width="16" stroke-miterlimit="10" stroke-linecap="round"/>
<path d="M76.3984 73.2021L195.586 192.499" stroke="#DBDBDB" stroke-width="16" stroke-miterlimit="10" stroke-linecap="round"/>
<path d="M67.4463 117.203L120.576 117.424" stroke="#DBDBDB" stroke-width="16" stroke-miterlimit="10" stroke-linecap="round"/>
<path d="M121.955 63.3018L122.183 114.559" stroke="#DBDBDB" stroke-width="16" stroke-miterlimit="10" stroke-linecap="round"/>
<path d="M77.3545 312.627L195.586 192.372" stroke="#DBDBDB" stroke-width="16" stroke-miterlimit="10" stroke-linecap="round"/>
<path d="M68.0469 268.694L121.176 268.058" stroke="#DBDBDB" stroke-width="16" stroke-miterlimit="10" stroke-linecap="round"/>
<path d="M122.987 322.163L122.81 270.906" stroke="#DBDBDB" stroke-width="16" stroke-miterlimit="10" stroke-linecap="round"/>
<path d="M25.3843 193.186L195.586 192.499" stroke="#DBDBDB" stroke-width="16" stroke-miterlimit="10" stroke-linecap="round"/>
<path d="M53.0024 153.889L88.8959 189.202" stroke="#DBDBDB" stroke-width="16" stroke-miterlimit="10" stroke-linecap="round"/>
<path d="M105.751 155.974L140.731 190.923" stroke="#DBDBDB" stroke-width="16" stroke-miterlimit="10" stroke-linecap="round"/>
<path d="M53.3154 230.711L88.9212 195.11" stroke="#DBDBDB" stroke-width="16" stroke-miterlimit="10" stroke-linecap="round"/>
<path d="M106.335 232.55L142.347 196.186" stroke="#DBDBDB" stroke-width="16" stroke-miterlimit="10" stroke-linecap="round"/>
<path d="M195.536 23.7339L196.128 353.992" stroke="#DBDBDB" stroke-width="16" stroke-miterlimit="10" stroke-linecap="round"/>
<path d="M232.876 45.7217L197.685 82.4923" stroke="#DBDBDB" stroke-width="16" stroke-miterlimit="10" stroke-linecap="round"/>
<path d="M231.497 101.92L195.747 139.276" stroke="#DBDBDB" stroke-width="16" stroke-miterlimit="10" stroke-linecap="round"/>
<path d="M234.035 336.335L198.556 299.853" stroke="#DBDBDB" stroke-width="16" stroke-miterlimit="10" stroke-linecap="round"/>
<path d="M232.233 286.46L196.187 249.393" stroke="#DBDBDB" stroke-width="16" stroke-miterlimit="10" stroke-linecap="round"/>
<path d="M323.693 223.116L323.642 223.803L320.816 265.481L320.766 266.261L320.529 267.015L307.837 308.431L307.82 308.456C306.567 311.508 305.29 314.466 303.987 317.314H303.97L283.239 345.142L282.384 346.304L281.124 347.007L252.101 363.307C252.059 363.333 252.016 363.35 251.974 363.375L251.213 363.799L250.222 364.011L244.426 365.274L151.486 365.647L220.024 334.233L221.47 333.572L222.469 332.326L236.65 314.78L237.92 313.212L238.106 311.372C238.123 311.313 238.131 311.262 238.131 311.203L244.756 247.401L244.917 245.909L244.469 244.604C244.469 244.561 244.452 244.536 244.443 244.494L237.014 222.726L227.047 188.075V188.058L226.514 186.21C226.514 186.21 226.717 185.455 227.047 184.311C227.063 184.286 227.063 184.243 227.072 184.201C227.157 183.938 227.233 183.633 227.334 183.319C227.427 182.989 227.537 182.633 227.647 182.26C227.698 182.082 227.757 181.887 227.808 181.7C227.918 181.327 228.045 180.937 228.163 180.539C228.468 179.564 228.781 178.573 229.094 177.649C229.145 177.471 229.221 177.284 229.289 177.106C229.357 176.894 229.424 176.691 229.509 176.479C229.593 176.258 229.678 176.03 229.754 175.826C229.78 175.758 229.797 175.699 229.839 175.631C229.881 175.496 229.932 175.368 229.974 175.258C230.177 174.758 230.389 174.351 230.55 174.055C230.609 173.953 230.66 173.877 230.719 173.8C230.812 173.665 230.913 173.58 230.998 173.563H231.133C232.995 173.699 247.549 178.623 247.549 178.623C247.549 178.623 241.964 169.994 238.004 163.646C237.92 163.51 237.835 163.357 237.75 163.213C237.623 163.018 237.496 162.806 237.386 162.62C237.15 162.247 236.921 161.882 236.718 161.535C236.058 160.467 235.5 159.518 235.068 158.772C234.924 158.517 234.806 158.297 234.687 158.102C234.408 157.602 234.239 157.254 234.197 157.102C234.18 157.059 234.171 156.992 234.137 156.881C234.01 156.339 233.689 154.957 233.232 152.999C233.19 152.804 233.13 152.609 233.088 152.397C232.987 151.982 232.893 151.55 232.775 151.092C232.673 150.643 232.563 150.16 232.453 149.676C232.267 148.922 232.09 148.134 231.887 147.312C231.777 146.786 231.65 146.227 231.523 145.667C231.421 145.277 231.337 144.887 231.243 144.48C230.846 142.836 230.448 141.115 230.042 139.335C229.957 138.988 229.873 138.64 229.788 138.276C229.424 136.674 229.035 135.046 228.654 133.402C228.527 132.842 228.4 132.291 228.257 131.715C227.935 130.308 227.605 128.918 227.292 127.553C227.207 127.231 227.14 126.909 227.064 126.595C226.92 125.968 226.767 125.341 226.624 124.73C226.48 124.103 226.344 123.51 226.2 122.908C226.074 122.365 225.947 121.823 225.82 121.28C225.752 120.95 225.667 120.628 225.591 120.306C225.397 119.475 225.21 118.661 225.024 117.881C224.745 116.669 224.483 115.559 224.246 114.559C224.187 114.321 224.144 114.101 224.094 113.881C224.094 113.855 224.077 113.821 224.077 113.796C223.975 113.406 223.89 113.033 223.823 112.694C223.654 111.999 223.527 111.414 223.417 110.939C223.222 110.092 223.104 109.617 223.104 109.617L223.332 108.269L224.407 101.886L224.703 100.106L225.854 98.7078L243.978 76.559L245.848 74.2703L248.699 74.0923C248.725 74.0754 248.767 74.0754 248.793 74.0754L262.762 73.1938L265.098 73.0413L266.976 74.3297C266.993 74.3466 267.018 74.3551 267.035 74.3721L278.831 82.484L279.135 82.6959L279.414 82.9417L282.401 85.5185L283.138 86.1543L283.628 86.9171C283.645 86.9341 283.654 86.9595 283.671 86.9765L295.043 104.607L295.381 105.124L295.61 105.667C295.61 105.684 295.627 105.684 295.627 105.692L306.212 131.223L315.325 156.754V156.771L315.596 157.509L315.68 158.305L318.794 186.193L323.583 222.438C323.6 222.574 323.609 222.701 323.626 222.845L323.693 223.116Z" fill="#F5F5F5"/>
<path d="M283.247 345.142L282.393 346.303L281.132 347.007L252.109 363.307C252.067 363.333 252.025 363.35 251.982 363.375L251.221 363.799L250.231 364.011L244.435 365.274H244.376C243.792 365.536 256.831 365.528 272.332 365.426C274.651 365.401 290.194 347.558 303.961 317.323L283.247 345.142ZM332.569 45.5013C332.062 43.0516 330.302 38.3557 324.852 37.703C322.999 37.6267 317.102 36.8045 311.026 35.8467C303.614 34.6769 295.914 33.3207 294.958 32.846C293.714 32.2273 293.24 24.8697 283.713 18.7837C281.665 17.4868 279.194 16.2238 276.216 15.1049C274.668 14.5285 272.975 13.986 271.139 13.4944C269.413 13.0282 267.602 12.7993 265.8 12.723C264.031 12.6298 261.628 12.5705 258.777 12.6976C251.094 13.0367 240.145 14.7489 229.627 21.2249C217.536 28.6587 206.011 42.3905 200.698 67.5823C200.038 70.388 197.457 81.4921 195.705 85.4845C195.705 85.4845 159.38 158.594 189.842 298.327C189.842 298.327 192.701 314.085 186.685 330.622C181.541 344.752 169.949 359.433 144.573 365.418C145.241 365.486 148.533 365.706 153.61 365.621L151.494 365.63L220.032 334.216L221.479 333.555L222.477 332.309L236.659 314.763L237.928 313.195L238.114 311.355C238.131 311.296 238.139 311.245 238.139 311.186L244.765 247.384L244.926 245.892L244.477 244.587C244.477 244.544 244.46 244.519 244.452 244.476L237.023 222.709L227.055 188.057V188.041L228.333 186.32C228.333 186.32 226.725 185.438 227.055 184.294C227.072 184.269 227.072 184.226 227.08 184.184C227.165 183.921 227.241 183.616 227.343 183.302C227.436 182.972 227.546 182.616 227.656 182.243C227.706 182.065 227.766 181.87 227.816 181.683C227.926 181.31 228.053 180.92 228.172 180.522C228.476 179.547 228.79 178.555 229.103 177.632C229.153 177.454 229.23 177.267 229.297 177.089C229.365 176.877 229.433 176.674 229.517 176.462C229.602 176.241 229.686 176.013 229.763 175.809C229.788 175.741 229.805 175.682 229.847 175.614C229.89 175.479 229.94 175.351 229.983 175.241C230.186 174.741 230.397 174.334 230.558 174.038C230.617 173.936 230.668 173.86 230.727 173.783C230.82 173.648 230.922 173.563 231.006 173.546H231.142C233.003 173.682 247.557 178.606 247.557 178.606C247.557 178.606 241.973 169.977 238.013 163.628C237.928 163.493 237.843 163.34 237.759 163.196C237.632 163.001 237.505 162.789 237.395 162.603C237.158 162.23 236.929 161.865 236.726 161.518C236.066 160.45 235.508 159.5 235.076 158.755C234.924 158.5 234.797 158.28 234.696 158.085C234.416 157.585 234.247 157.237 234.205 157.085C234.188 157.042 234.18 156.975 234.146 156.864C234.019 156.322 233.697 154.94 233.24 152.982C233.198 152.787 233.139 152.592 233.096 152.38C232.995 151.965 232.902 151.533 232.783 151.075C232.682 150.626 232.572 150.143 232.462 149.659C232.276 148.905 232.098 148.117 231.895 147.294C231.785 146.769 231.658 146.209 231.531 145.65C231.43 145.26 231.345 144.87 231.252 144.463C230.871 142.819 230.456 141.098 230.05 139.318C229.966 138.971 229.881 138.623 229.796 138.259C229.433 136.657 229.043 135.029 228.663 133.385C228.536 132.825 228.409 132.274 228.265 131.698C227.943 130.291 227.613 128.901 227.3 127.536C227.216 127.214 227.148 126.892 227.072 126.578C226.928 125.951 226.776 125.324 226.632 124.713C226.488 124.086 226.353 123.493 226.209 122.891C226.082 122.331 225.955 121.789 225.828 121.263C225.76 120.933 225.676 120.611 225.6 120.289C225.405 119.458 225.219 118.644 225.033 117.864C224.753 116.652 224.491 115.542 224.254 114.542C224.212 114.304 224.153 114.084 224.102 113.864C224.102 113.838 224.085 113.804 224.085 113.779C223.983 113.389 223.899 113.016 223.831 112.677C223.662 111.982 223.535 111.397 223.425 110.922C223.23 110.075 223.112 109.6 223.112 109.6L223.34 108.252L224.415 101.869L224.711 100.089L225.583 99.0383C225.676 98.9281 225.76 98.8009 225.862 98.6908L243.986 76.5419L245.856 74.2533L248.708 74.0753C248.733 74.0583 248.776 74.0583 248.801 74.0583L262.771 73.1768L265.106 73.0242L266.985 74.3126C267.001 74.3296 267.027 74.338 267.044 74.355L278.839 82.4669L279.093 82.806L279.423 82.9246L282.41 85.5015L282.875 86.4678L283.645 86.9001C283.662 86.917 283.671 86.9424 283.687 86.9594L295.06 104.59L295.398 105.107L295.627 105.65C295.627 105.667 295.643 105.667 295.643 105.675L306.229 131.206L315.342 156.737V156.754L315.612 157.492L315.697 158.288L318.811 186.176L323.6 222.421C323.617 222.556 323.625 222.684 323.642 222.828L323.685 223.09L323.634 223.777L320.808 265.456L320.757 266.235L320.52 266.99L307.828 308.405C326.866 261.878 339.389 191.041 301.507 111.795C301.507 111.795 291.98 94.3 276.673 76.3554C276.648 76.313 276.605 76.2283 276.521 76.1435C274.075 73.3717 274.253 68.3113 274.287 67.7943V67.7519C274.888 62.0642 277.02 54.9864 286.234 52.1044C288.316 51.4263 312.863 48.9088 325.436 47.6713C328.034 47.4085 330.115 47.2051 331.402 47.0864C332.231 47.0355 332.772 46.3235 332.569 45.5013ZM273.144 36.2705C271.604 36.279 270.344 35.0245 270.335 33.4648C270.327 31.9052 271.579 30.6337 273.119 30.6252C274.676 30.6167 275.928 31.8797 275.937 33.4394C275.945 34.999 274.701 36.2705 273.144 36.2705Z" fill="#1D1D1B"/>
<path d="M275.945 33.4479C275.954 35.0075 274.702 36.2621 273.145 36.2705C271.605 36.279 270.344 35.0245 270.335 33.4648C270.327 31.9052 271.579 30.6337 273.119 30.6252C274.676 30.6252 275.937 31.8882 275.945 33.4479Z" fill="#1D1D1B"/>
<path d="M323.642 222.853C323.659 223.158 323.659 223.48 323.634 223.803L320.808 265.481C320.766 265.998 320.673 266.515 320.52 267.015L307.811 308.456C306.559 311.508 305.281 314.466 303.978 317.314H303.961L283.231 345.142C283.146 347.007 282.427 347.634 281.115 347.007L252.092 363.307C252.05 363.333 252.008 363.35 251.966 363.375C251.424 363.655 250.832 363.884 250.214 364.011L244.418 365.274H244.359C244.376 365.274 248.505 362.697 250.442 361.392C318.955 315.356 315.909 242.205 315.824 231.202C315.824 231.067 315.824 230.94 315.833 230.796C320.216 154.355 297.539 109.176 283.891 89.3075C283.891 89.3075 283.891 89.2651 283.848 89.2227C283.781 89.0956 283.696 88.9854 283.611 88.9006C273.585 74.5924 255.782 78.7713 251.627 79.9919C251.517 80.0343 251.432 80.0597 251.348 80.0597L251.28 80.1021C251.128 80.1445 251.043 80.1869 250.959 80.1869L250.764 80.2716C205.791 95.0629 240.619 133.351 244.266 138.683C244.486 139.013 244.731 139.318 245.01 139.598C305.924 202.832 265.563 256.072 265.978 251.546C262.179 214.818 230.956 181.683 232.022 183.421C276.783 266.625 246.076 319.416 243.961 322.434C237.116 334.386 227.639 343.074 217.248 349.355C195.375 362.587 173.833 364.943 158.263 365.426C157.722 365.443 154.083 365.621 153.576 365.63L151.46 365.638L219.998 334.225C220.946 333.792 221.784 333.148 222.435 332.318L236.616 314.771C237.403 313.797 237.911 312.618 238.08 311.364C238.097 311.305 238.106 311.254 238.106 311.194L244.731 247.392C244.841 246.443 244.739 245.502 244.443 244.595C244.443 244.553 244.426 244.527 244.418 244.485L236.989 222.718L227.021 188.066V188.049C226.666 186.829 226.666 185.532 227.021 184.303C227.038 184.277 227.038 184.235 227.047 184.192C227.131 183.93 227.207 183.624 227.309 183.311C227.402 182.98 227.512 182.624 227.622 182.251C227.673 182.073 227.732 181.878 227.783 181.692C227.893 181.319 228.02 180.929 228.138 180.531C228.443 179.556 228.756 178.564 229.069 177.64C229.12 177.462 229.196 177.276 229.263 177.098C229.331 176.886 229.399 176.682 229.483 176.47C229.568 176.25 229.653 176.021 229.729 175.818C229.754 175.75 229.771 175.691 229.813 175.623C229.856 175.487 229.907 175.36 229.949 175.25C230.152 174.75 230.363 174.343 230.524 174.046C230.583 173.944 230.634 173.868 230.693 173.792C230.787 173.656 230.888 173.571 230.973 173.554H231.108C236.642 173.961 240.5 168.418 237.979 163.637C237.894 163.501 237.81 163.349 237.725 163.205C237.598 163.01 237.471 162.798 237.361 162.611C237.124 162.238 236.896 161.874 236.693 161.526C236.033 160.458 235.474 159.509 235.043 158.763C234.899 158.509 234.78 158.288 234.662 158.093C234.383 157.593 234.213 157.246 234.171 157.093C234.154 157.051 234.146 156.983 234.112 156.873C233.985 156.33 233.663 154.949 233.207 152.991C233.164 152.796 233.105 152.601 233.063 152.389C232.961 151.974 232.868 151.541 232.75 151.084C232.648 150.634 232.538 150.151 232.428 149.668C232.242 148.914 232.064 148.125 231.861 147.303C231.751 146.777 231.624 146.218 231.497 145.659C231.396 145.269 231.311 144.879 231.218 144.472C230.837 142.827 230.423 141.107 230.017 139.327C229.932 138.979 229.847 138.632 229.763 138.267C229.399 136.665 229.01 135.038 228.629 133.393C228.502 132.834 228.375 132.283 228.231 131.706C227.91 130.299 227.58 128.909 227.267 127.545C227.182 127.222 227.114 126.9 227.038 126.587C226.894 125.959 226.742 125.332 226.598 124.722C226.454 124.095 226.319 123.501 226.175 122.899C226.048 122.34 225.921 121.798 225.794 121.272C225.727 120.941 225.642 120.619 225.566 120.297C225.371 119.467 225.185 118.653 224.999 117.873C224.72 116.661 224.457 115.55 224.22 114.55C224.178 114.313 224.119 114.092 224.068 113.872C224.068 113.847 224.051 113.813 224.051 113.787C223.95 113.397 223.865 113.024 223.797 112.685C223.628 111.99 222.587 110.651 222.469 110.176C222.257 109.303 223.154 109.151 223.307 108.252L222.638 102.904C222.824 101.734 223.51 99.3181 224.271 98.4026L243.14 73.126C244.299 71.685 246.838 74.211 248.674 74.0754C248.699 74.0584 249.613 71.9563 249.647 71.9563L265.038 71.2527C266.528 71.1595 265.724 73.4905 266.959 74.3212C266.976 74.3381 266.951 72.5157 266.968 72.5242L278.814 82.4755C279.025 82.6111 279.22 82.7637 279.398 82.9332L282.384 85.51C282.858 85.9254 283.281 86.4001 283.611 86.9086C283.628 86.9256 283.637 86.951 283.654 86.968L295.026 104.599C295.246 104.929 295.432 105.294 295.584 105.658C295.584 105.675 295.601 105.675 295.601 105.684L306.187 131.215L315.299 156.746V156.763C315.486 157.263 315.596 157.763 315.655 158.297L318.769 186.184L323.558 222.429C323.617 222.582 323.634 222.709 323.642 222.853Z" fill="#1D1D1B"/>
<path d="M275.945 33.4479C275.954 35.0075 274.702 36.2621 273.145 36.2705C271.605 36.279 270.344 35.0245 270.335 33.4648C270.327 31.9052 271.579 30.6337 273.119 30.6252C274.676 30.6252 275.937 31.8882 275.945 33.4479Z" fill="#F5F5F5"/>
<path d="M118.198 377.819C119.231 378.243 120.263 378.658 121.304 379.073C120.314 378.7 119.366 378.327 118.494 377.988C118.376 377.946 118.283 377.887 118.198 377.819Z" fill="#1D1D1B"/>
<path d="M297.581 330.334C297.581 330.334 284.085 361.476 325.41 365.206L266.121 365.443L297.581 330.334Z" fill="#1D1D1B"/>
<path d="M296.523 393.966C295.922 399.128 295.339 404.291 294.712 409.453C294.442 411.699 293.79 412.241 291.497 412.275C290.169 412.301 288.832 412.301 287.503 412.292C284.889 412.267 284.144 411.462 284.508 408.944C285.219 404.053 285.972 399.171 286.725 394.288C287.647 388.279 288.612 382.269 289.475 376.251C289.729 374.454 290.236 373.055 292.259 372.724C294.281 372.394 295.787 373.072 296.735 375.081C300.136 382.294 303.462 389.542 306.838 396.772C307.125 397.382 307.235 398.111 308.056 398.688C309.021 396.467 309.977 394.297 310.908 392.127C313.226 386.719 315.536 381.303 317.846 375.886C318.599 374.115 319.564 372.631 321.772 372.546C323.955 372.462 325.131 373.284 325.487 375.471C326.764 383.413 327.974 391.373 329.218 399.323C329.709 402.451 330.217 405.579 330.69 408.715C331.08 411.309 330.411 412.089 327.814 412.14C326.993 412.157 326.164 412.148 325.343 412.148C321.975 412.157 321.391 411.623 321.011 408.325C320.461 403.536 319.885 398.755 319.318 393.975C319.284 393.687 319.369 393.322 318.768 393.102C317.474 396.289 316.179 399.484 314.893 402.68C314.021 404.85 313.15 407.028 312.295 409.207C311.517 411.19 310.315 412.564 307.98 412.572C305.653 412.58 304.443 411.241 303.639 409.249C301.532 404.028 299.375 398.823 297.242 393.61C296.684 393.119 296.743 393.814 296.523 393.966Z" fill="black"/>
<path d="M171.488 387.872C169.001 378.717 160.751 372.75 150.622 372.733C149.319 372.885 147.974 372.945 146.671 373.182C138.632 374.725 132.769 379.133 130.357 387.067C128.03 394.729 129.562 401.832 135.392 407.554C140.638 412.699 147.145 414.14 154.328 413.259C166.572 411.809 174.729 399.79 171.488 387.872ZM150.8 404.019C144.716 404.045 140.105 399.459 140.062 393.314C140.003 387.168 144.538 382.438 150.563 382.362C156.731 382.269 161.453 386.897 161.512 393.085C161.58 399.281 156.977 403.994 150.8 404.019Z" fill="#43BCFF"/>
<path d="M254.588 397.984C254.114 397.153 253.945 396.713 255.054 396.128C259.674 393.653 261.857 389.593 261.323 384.753C260.723 379.158 257.787 375.547 252.566 374.021C250.679 373.487 248.733 373.165 246.753 373.174C241.998 373.208 237.259 373.208 232.504 373.233C229.542 373.242 228.789 373.996 228.781 376.937C228.781 382.269 228.823 387.575 228.848 392.907C228.874 398.306 228.874 403.689 228.916 409.071C228.942 411.691 229.779 412.487 232.343 412.513C233.595 412.53 234.865 412.521 236.134 412.496C238.605 412.453 239.417 411.648 239.425 409.156C239.451 406.045 239.4 402.934 239.408 399.849C239.408 399.357 239.222 398.781 239.654 398.391C240.381 397.755 243.538 398.433 244.028 399.315C246.076 403.036 248.141 406.732 250.154 410.47C250.907 411.835 251.923 412.521 253.522 412.436C255.172 412.36 256.822 412.42 258.455 412.403C261.417 412.369 261.975 411.402 260.545 408.792C258.574 405.181 256.602 401.57 254.588 397.984ZM247.151 390.864C244.849 391.381 242.505 391.008 240.161 391.11C239.451 391.152 239.358 390.694 239.358 390.152L239.341 386.355C239.324 381.879 239.324 381.879 243.808 381.862C244.646 381.862 245.458 381.837 246.279 381.887C248.817 382.023 250.518 383.71 250.687 386.193C250.865 388.508 249.545 390.33 247.151 390.864Z" fill="black"/>
<path d="M99.862 398.654C99.4558 397.908 99.0581 397.399 100.251 396.764C105.125 394.127 107.173 390.059 106.504 384.829C105.827 379.506 102.73 375.971 97.4589 374.555C95.6228 374.072 93.7528 373.792 91.832 373.792C87.0767 373.826 82.3214 373.809 77.566 373.852C74.8076 373.86 74.1222 374.572 74.1138 377.395C74.1138 382.777 74.1561 388.177 74.1815 393.559C74.2068 399.035 74.2068 404.486 74.2492 409.944C74.2745 412.36 75.0615 413.106 77.473 413.131C78.8014 413.148 80.1383 413.14 81.4668 413.115C83.8444 413.072 84.6398 412.267 84.6483 409.885C84.6737 406.706 84.6229 403.536 84.6314 400.358C84.6314 399.883 84.4283 399.34 84.9698 398.976C85.9852 398.315 88.8198 399.069 89.4375 400.196C90.6644 402.409 91.849 404.638 93.0928 406.859C97.332 414.352 95.2589 412.92 103.644 413.038C106.75 413.064 107.274 412.097 105.751 409.317C103.797 405.749 101.842 402.214 99.862 398.654ZM92.3736 391.5C90.0721 392 87.7282 391.627 85.3844 391.729C84.6737 391.771 84.5637 391.313 84.5806 390.754L84.5637 386.863C84.7075 385.642 83.8783 383.701 84.8767 382.769C85.8329 381.87 87.7621 382.557 89.2682 382.498C90.0298 382.455 90.7913 382.455 91.5359 382.506C94.0236 382.642 95.682 384.235 95.9105 386.651C96.1558 389.101 94.8612 390.949 92.3736 391.5Z" fill="#43BCFF"/>
<path d="M336.918 392.373C336.901 387.168 336.867 381.964 336.859 376.768C336.851 373.53 337.553 372.809 340.7 372.792C347.867 372.758 355.034 372.725 362.201 372.708C364.934 372.699 365.653 373.437 365.687 376.208C365.696 376.649 365.696 377.098 365.696 377.539C365.687 380.633 364.976 381.362 361.913 381.379C357.598 381.404 353.291 381.455 348.976 381.404C347.774 381.387 347.267 381.667 347.385 382.973C347.537 384.668 346.894 386.889 347.749 387.94C348.663 389.067 350.956 388.228 352.648 388.287C354.552 388.347 356.456 388.262 358.351 388.287C360.72 388.321 361.49 389.118 361.549 391.534C361.566 392.042 361.566 392.551 361.558 393.059C361.516 395.526 360.686 396.391 358.258 396.416C355.153 396.45 352.039 396.501 348.933 396.433C347.757 396.408 347.36 396.781 347.444 397.942C347.537 399.264 347.546 400.612 347.461 401.934C347.377 403.129 347.825 403.435 348.976 403.409C353.35 403.333 357.725 403.341 362.099 403.333C365.323 403.333 365.975 403.994 366.009 407.249C366.017 407.944 366.017 408.648 365.983 409.343C365.907 411.004 365.036 411.953 363.352 411.962C355.491 412.013 347.622 412.064 339.761 412.047C337.824 412.047 337.028 411.029 337.003 408.732C336.935 403.282 336.935 397.832 336.918 392.373Z" fill="black"/>
<path d="M212.273 373.674C211.003 373.445 209.751 373.318 208.499 373.326C203.617 373.343 198.734 373.343 193.852 373.386C191.347 373.394 190.569 374.182 190.561 376.691C190.561 382.074 190.603 387.457 190.628 392.856C190.654 398.366 190.654 403.892 190.696 409.402C190.721 411.911 191.491 412.631 194.03 412.665C195.358 412.682 196.695 412.674 198.024 412.648C200.257 412.589 201.087 411.784 201.112 409.487C201.137 406.706 201.163 403.901 201.061 401.12C201.019 399.866 201.417 399.501 202.669 399.51C205.698 399.552 208.753 399.671 211.782 399.239C219.042 398.213 223.306 393.644 223.425 386.77C223.526 379.65 219.533 374.971 212.273 373.674ZM208.203 391.347C206.316 391.423 204.412 391.322 202.5 391.423C201.298 391.5 200.934 391.051 201.027 389.898C201.095 388.821 201.036 387.753 201.036 386.677C201.019 382.023 201.019 382.023 205.588 382.006C206.409 382.006 207.221 381.981 208.059 382.015C210.978 382.091 212.696 383.795 212.763 386.617C212.806 389.423 211.105 391.229 208.203 391.347Z" fill="black"/>
<path d="M40.8688 393.509C40.8434 388.185 40.818 382.854 40.8096 377.53C40.8096 374.818 41.6134 373.996 44.2957 373.979C51.4541 373.936 58.6209 373.911 65.7793 373.894C68.2754 373.886 69.037 374.657 69.13 377.174C69.1385 377.488 69.1385 377.81 69.1385 378.124C69.1554 381.981 68.597 382.557 64.7978 382.574C60.804 382.591 56.8102 382.65 52.8248 382.599C51.6571 382.582 51.2679 382.93 51.3441 384.108C51.4541 385.685 51.4372 387.278 51.3695 388.863C51.3187 389.965 51.7502 390.279 52.8079 390.254C55.6594 390.186 58.5109 390.186 61.3624 390.211C64.0193 390.228 64.7216 390.957 64.7639 393.619C64.7724 394.254 64.7893 394.89 64.7639 395.517C64.6793 397.416 63.8586 398.281 61.9209 398.323C58.9425 398.391 55.964 398.425 52.9856 398.349C51.7164 398.315 51.361 398.73 51.4033 399.968C51.4964 403.138 51.4625 406.308 51.4625 409.478C51.4625 412.47 50.7264 413.225 47.8156 413.25C46.6734 413.259 45.5311 413.267 44.3972 413.259C41.7911 413.242 40.9619 412.453 40.9365 409.868C40.9026 404.418 40.8942 398.967 40.8688 393.509Z" fill="#43BCFF"/>
<path d="M267.661 392.746C267.635 387.363 267.61 381.972 267.602 376.59C267.602 373.903 268.422 373.106 271.13 373.072C272.272 373.055 273.406 373.055 274.548 373.055C277.324 373.063 278.111 373.852 278.128 376.7C278.161 380.879 278.161 385.066 278.178 389.245C278.204 395.712 278.238 402.171 278.255 408.639C278.263 411.572 277.493 412.318 274.54 412.343C273.398 412.352 272.264 412.369 271.122 412.352C268.575 412.326 267.745 411.512 267.728 408.902C267.695 403.519 267.686 398.128 267.661 392.746Z" fill="black"/>
<path d="M123.419 393.314C123.444 398.696 123.478 404.079 123.478 409.47C123.478 412.191 122.708 412.937 119.967 412.962C118.697 412.979 117.437 412.996 116.167 412.971C113.9 412.937 113.079 412.148 113.062 409.868C113.011 403.85 113.003 397.832 112.978 391.813C112.961 386.872 112.927 381.93 112.927 376.988C112.927 374.488 113.705 373.725 116.21 373.682C117.479 373.665 118.74 373.657 120.009 373.665C122.488 373.682 123.317 374.471 123.343 376.954C123.402 382.413 123.402 387.863 123.419 393.314Z" fill="#43BCFF"/>
<path d="M296.523 393.966C296.413 393.5 296.252 392.898 296.811 392.754C297.166 392.661 297.31 393.195 297.226 393.602C296.989 393.72 296.76 393.839 296.523 393.966Z" fill="#8C8C8C"/>
<path d="M241.337 419.726C237.631 419.726 234.847 422.371 234.881 425.88C234.898 429.372 237.665 431.974 241.346 431.966C245.01 431.949 247.776 429.304 247.768 425.829C247.751 422.337 245.001 419.726 241.337 419.726ZM241.32 429.745C239.087 429.754 237.394 428.084 237.386 425.854C237.377 423.617 239.044 421.955 241.295 421.947C243.563 421.938 245.238 423.566 245.263 425.804C245.289 428.033 243.588 429.737 241.32 429.745Z" fill="black"/>
<path d="M346.09 419.65C344.33 419.387 342.528 419.591 340.734 419.548C339.879 419.531 339.702 419.735 339.702 420.574L339.744 430.449C339.744 431.102 339.964 431.339 340.548 431.339C342.164 431.347 343.78 431.381 345.396 431.305C348.502 431.169 350.6 429.211 350.981 426.177C351.404 422.829 349.39 420.15 346.09 419.65ZM348.256 426.931C347.715 428.423 346.581 429.16 345.015 429.271C344.22 429.33 343.382 429.296 342.562 429.313C342.198 429.33 342.215 429.118 342.215 428.864L342.198 425.448C342.189 424.303 342.206 423.159 342.181 422.015C342.164 421.65 342.291 421.54 342.629 421.557C343.577 421.608 344.516 421.481 345.447 421.616C347.097 421.879 348.248 423.074 348.434 424.736C348.527 425.482 348.51 426.219 348.256 426.931Z" fill="black"/>
<path d="M305.044 419.472C301.414 419.574 298.664 422.32 298.774 425.719C298.875 429.228 301.735 431.797 305.407 431.712C309.054 431.61 311.77 428.923 311.677 425.49C311.593 421.93 308.767 419.362 305.044 419.472ZM305.264 429.491C303.013 429.5 301.321 427.855 301.312 425.617C301.304 423.38 302.928 421.718 305.196 421.693C307.481 421.684 309.156 423.329 309.173 425.583C309.181 427.796 307.497 429.483 305.264 429.491Z" fill="black"/>
<path d="M358.884 419.251C355.22 419.251 352.436 421.879 352.411 425.329C352.385 428.838 355.195 431.5 358.875 431.483C362.539 431.466 365.306 428.838 365.315 425.363C365.306 421.879 362.548 419.26 358.884 419.251ZM358.799 429.271C356.565 429.245 354.907 427.541 354.949 425.304C354.975 423.049 356.658 421.438 358.96 421.472C361.194 421.515 362.835 423.201 362.81 425.456C362.785 427.643 361.05 429.304 358.799 429.271Z" fill="black"/>
<path d="M269.489 419.938C267.729 419.675 265.927 419.879 264.133 419.853C263.354 419.836 263.168 420.04 263.177 420.803C263.168 422.456 263.193 424.091 263.193 425.744C263.202 427.44 263.185 429.11 263.21 430.796C263.21 431.398 263.413 431.635 263.997 431.627C265.613 431.635 267.23 431.669 268.846 431.593C272.002 431.474 274.261 429.279 274.43 426.278C274.633 422.812 272.814 420.438 269.489 419.938ZM271.587 427.533C270.995 428.864 269.886 429.499 268.456 429.584C267.636 429.644 266.823 429.61 266.003 429.627C265.639 429.644 265.673 429.432 265.673 429.177L265.656 425.702C265.647 424.575 265.647 423.447 265.622 422.32C265.622 421.972 265.715 421.845 266.07 421.862C266.993 421.913 267.906 421.803 268.812 421.922C270.521 422.15 271.646 423.312 271.875 425.015C272.002 425.872 271.951 426.728 271.587 427.533Z" fill="black"/>
<path d="M257.862 427.185C257.854 425.99 257.854 424.795 257.846 423.591C257.846 422.642 257.829 421.693 257.837 420.735C257.846 420.065 258.04 419.879 258.709 419.862C260.291 419.828 260.299 419.828 260.299 421.421C260.308 424.464 260.325 427.516 260.333 430.559C260.333 431.008 260.392 431.483 259.842 431.686C259.275 431.89 258.802 431.686 258.429 431.254C257.245 429.889 256.077 428.508 254.901 427.134C254.097 426.194 253.302 425.253 252.405 424.21C252.388 424.549 252.371 424.744 252.371 424.948C252.379 426.846 252.388 428.753 252.388 430.652C252.388 431.517 252.236 431.678 251.372 431.678C249.926 431.686 249.917 431.678 249.909 430.22C249.9 427.177 249.883 424.125 249.875 421.082C249.875 420.633 249.756 420.116 250.332 419.879C250.839 419.667 251.364 419.811 251.829 420.353C253.446 422.218 255.036 424.1 256.644 425.982C256.999 426.397 257.346 426.804 257.702 427.211C257.786 427.211 257.829 427.202 257.862 427.185Z" fill="black"/>
<path d="M316.297 424.109C316.306 426.202 316.314 428.296 316.323 430.39C316.323 431.313 316.204 431.441 315.29 431.441C313.886 431.449 313.869 431.432 313.86 430.008C313.852 426.94 313.835 423.88 313.826 420.811C313.826 420.354 313.716 419.836 314.309 419.633C314.901 419.43 315.375 419.641 315.764 420.091C316.856 421.354 317.939 422.625 319.022 423.897C319.902 424.931 320.79 425.965 321.679 427.007C321.865 426.829 321.78 426.626 321.78 426.456C321.78 424.498 321.763 422.54 321.763 420.582C321.763 419.803 321.932 419.633 322.719 419.625C324.209 419.608 324.209 419.608 324.217 421.091C324.226 424.176 324.242 427.262 324.251 430.347C324.251 430.771 324.31 431.229 323.794 431.432C323.227 431.653 322.753 431.466 322.381 431.042C321.323 429.822 320.283 428.593 319.233 427.372C318.294 426.27 317.355 425.16 316.407 424.058C316.373 424.066 316.339 424.092 316.297 424.109Z" fill="black"/>
<path d="M214.811 427.397C214.65 427.109 214.625 426.982 214.988 426.812C216.562 426.1 217.18 424.964 217.028 423.201C216.892 421.743 215.945 420.692 214.405 420.285C213.88 420.141 213.33 420.057 212.788 420.057L208.524 420.074C207.779 420.074 207.602 420.26 207.602 421.023L207.635 430.33C207.644 431.89 207.644 431.89 209.243 431.847C209.912 431.847 210.098 431.661 210.115 430.974C210.132 430.262 210.089 429.559 210.123 428.83C210.123 428.338 209.886 427.685 210.225 427.389C210.546 427.101 211.189 427.329 211.697 427.27C212.002 427.253 212.188 427.38 212.332 427.651C212.848 428.592 213.355 429.516 213.888 430.449C214.853 432.119 214.438 431.813 216.325 431.822C217.07 431.839 217.197 431.585 216.833 430.932C216.156 429.754 215.488 428.575 214.811 427.397ZM212.746 425.532C212.002 425.549 211.24 425.541 210.478 425.558C210.174 425.558 210.064 425.448 210.081 425.159C210.098 424.685 210.081 424.236 210.072 423.761C210.072 423.345 210.089 422.905 210.064 422.489C210.047 422.184 210.174 422.091 210.478 422.091C211.223 422.108 211.985 422.066 212.746 422.099C213.855 422.15 214.531 422.837 214.531 423.854C214.523 424.829 213.838 425.49 212.746 425.532Z" fill="black"/>
<path d="M205.706 430.813C204.132 427.507 202.542 424.21 200.968 420.904C200.748 420.43 200.528 420.014 199.893 419.997C199.225 419.98 199.005 420.438 198.768 420.93C198.065 422.464 197.346 423.973 196.627 425.498C195.747 427.355 194.867 429.211 193.995 431.076C193.725 431.678 193.869 431.932 194.529 431.907C196.475 431.881 196.052 432.195 196.813 430.457C196.864 430.347 196.923 430.237 196.957 430.127C197.05 429.779 197.262 429.669 197.625 429.669C198.895 429.686 200.164 429.677 201.416 429.669C202.558 429.66 202.558 429.66 203.015 430.737C203.489 431.864 203.489 431.864 204.708 431.856H205.055C206.019 431.864 206.129 431.703 205.706 430.813ZM201.467 427.906L198.252 427.923C198.091 427.923 197.905 427.923 198.015 427.668C198.607 426.27 199.216 424.88 199.868 423.354C200.511 424.846 201.095 426.219 201.678 427.584C201.755 427.77 201.738 427.906 201.467 427.906Z" fill="black"/>
<path d="M337.815 430.245C336.224 426.923 334.65 423.6 333.06 420.286C332.84 419.828 332.569 419.455 331.985 419.472C331.418 419.472 331.173 419.836 330.97 420.277C329.963 422.405 328.973 424.524 327.966 426.652C327.357 427.965 326.722 429.279 326.13 430.585C325.859 431.169 326.003 431.364 326.637 431.381C327.018 431.398 327.416 431.381 327.796 431.398C328.16 431.398 328.38 431.254 328.524 430.924C328.719 430.449 328.939 429.991 329.116 429.525C329.226 429.237 329.387 429.161 329.675 429.161C330.944 429.177 332.196 429.169 333.466 429.161C334.684 429.152 334.684 429.135 335.158 430.262C335.725 431.602 335.691 431.33 336.816 431.347H337.104C338.17 431.339 338.272 431.195 337.815 430.245ZM333.483 427.389C332.467 427.372 331.452 427.38 330.453 427.38C330.183 427.397 330.039 427.364 330.183 427.033C330.775 425.668 331.35 424.304 332.002 422.803C332.628 424.27 333.195 425.617 333.779 426.982C333.923 427.321 333.796 427.389 333.483 427.389Z" fill="black"/>
<path d="M222.714 425.939C222.68 421.921 226.42 419.031 230.481 419.921C231.649 420.175 232.673 420.701 233.527 421.54C233.967 421.972 233.959 422.252 233.519 422.667C233.409 422.769 233.282 422.871 233.164 422.973C232.537 423.498 232.402 423.507 231.767 422.981C230.608 422.04 229.305 421.735 227.884 422.184C226.394 422.659 225.514 423.71 225.294 425.253C225.066 426.863 225.54 428.236 226.936 429.152C228.29 430.042 229.72 430.016 231.141 429.254C231.294 429.169 231.454 429.084 231.573 428.965C232.478 428.067 232.647 428.287 233.688 429.22C234.035 429.533 233.891 429.872 233.595 430.178C232.267 431.508 230.634 432.076 228.78 432.008C225.294 431.856 222.739 429.287 222.714 425.939Z" fill="black"/>
<path d="M287.74 419.54C289.195 419.565 290.71 420.082 291.954 421.269C292.453 421.752 292.444 422.015 291.937 422.473C291.835 422.566 291.734 422.651 291.624 422.735C290.998 423.261 290.862 423.269 290.228 422.744C289.068 421.803 287.765 421.498 286.344 421.947C284.855 422.422 283.975 423.473 283.755 425.016C283.526 426.626 284 427.999 285.396 428.915C286.75 429.796 288.18 429.779 289.601 429.008C289.754 428.923 289.914 428.838 290.033 428.72C290.938 427.821 291.108 428.042 292.148 428.974C292.495 429.288 292.351 429.627 292.047 429.932C290.718 431.263 289.085 431.831 287.232 431.763C283.551 431.61 281.005 428.821 281.191 425.185C281.36 422.015 284.101 419.565 287.74 419.54Z" fill="black"/>
<path d="M279.076 425.694C279.084 427.338 279.092 428.991 279.092 430.635C279.092 431.415 278.915 431.585 278.128 431.593C276.605 431.61 276.605 431.61 276.605 430.084C276.596 427.101 276.579 424.117 276.571 421.133C276.562 419.853 276.622 419.802 277.925 419.802C278.001 419.802 278.077 419.802 278.162 419.802C278.864 419.811 279.059 419.997 279.067 420.701C279.067 422.362 279.067 424.024 279.076 425.694Z" fill="#010101"/>
<path d="M296.667 425.558C296.675 427.245 296.684 428.932 296.684 430.61C296.684 431.339 296.523 431.5 295.804 431.517C294.221 431.542 294.221 431.542 294.213 429.957C294.205 426.897 294.188 423.837 294.179 420.777C294.179 419.896 294.34 419.735 295.228 419.726C296.641 419.718 296.641 419.718 296.65 421.142C296.658 422.617 296.667 424.083 296.667 425.558Z" fill="black"/>
</g>
<defs>
<clipPath id="clip0_543_499">
<rect width="366" height="432" fill="white"/>
</clipPath>
</defs>
</svg>
