<svg width="83" height="35" viewBox="0 0 83 35" fill="none" xmlns="http://www.w3.org/2000/svg">
<path d="M14.431 25.3348C14.7309 25.6205 15.2057 25.6089 15.4913 25.3089C15.777 25.009 15.7654 24.5343 15.4655 24.2486L14.431 25.3348ZM7.80923 16.9569C7.50929 16.6713 7.03455 16.6829 6.74889 16.9828C6.46322 17.2827 6.4748 17.7575 6.77475 18.0431L7.80923 16.9569ZM6.77475 16.9569C6.4748 17.2426 6.46322 17.7173 6.74889 18.0173C7.03455 18.3172 7.50929 18.3288 7.80923 18.0431L6.77475 16.9569ZM15.4655 10.7515C15.7654 10.4658 15.777 9.99108 15.4913 9.69113C15.2057 9.39119 14.7309 9.37961 14.431 9.66527L15.4655 10.7515ZM7.29199 16.75C6.87778 16.75 6.54199 17.0858 6.54199 17.5C6.54199 17.9143 6.87778 18.25 7.29199 18.25L7.29199 16.75ZM27.7087 18.25C28.1229 18.25 28.4587 17.9143 28.4587 17.5C28.4587 17.0858 28.1229 16.75 27.7087 16.75L27.7087 18.25ZM15.4655 24.2486L7.80923 16.9569L6.77475 18.0431L14.431 25.3348L15.4655 24.2486ZM7.80923 18.0431L15.4655 10.7515L14.431 9.66527L6.77475 16.9569L7.80923 18.0431ZM7.29199 18.25L27.7087 18.25L27.7087 16.75L7.29199 16.75L7.29199 18.25Z" fill="#112437"/>
<path d="M68.569 9.66519C68.2691 9.37953 67.7943 9.3911 67.5087 9.69105C67.223 9.991 67.2346 10.4657 67.5345 10.7514L68.569 9.66519ZM75.1908 18.0431C75.4907 18.3287 75.9654 18.3171 76.2511 18.0172C76.5368 17.7173 76.5252 17.2425 76.2252 16.9569L75.1908 18.0431ZM76.2252 18.0431C76.5252 17.7574 76.5368 17.2827 76.2511 16.9827C75.9654 16.6828 75.4907 16.6712 75.1908 16.9569L76.2252 18.0431ZM67.5345 24.2485C67.2346 24.5342 67.223 25.0089 67.5087 25.3089C67.7943 25.6088 68.2691 25.6204 68.569 25.3347L67.5345 24.2485ZM75.708 18.25C76.1222 18.25 76.458 17.9142 76.458 17.5C76.458 17.0857 76.1222 16.75 75.708 16.75L75.708 18.25ZM55.2913 16.75C54.8771 16.75 54.5413 17.0857 54.5413 17.5C54.5413 17.9142 54.8771 18.25 55.2913 18.25L55.2913 16.75ZM67.5345 10.7514L75.1908 18.0431L76.2252 16.9569L68.569 9.66519L67.5345 10.7514ZM75.1908 16.9569L67.5345 24.2485L68.569 25.3347L76.2252 18.0431L75.1908 16.9569ZM75.708 16.75L55.2913 16.75L55.2913 18.25L75.708 18.25L75.708 16.75Z" fill="#112437"/>
</svg>
