<svg width="213" height="251" viewBox="0 0 213 251" fill="none" xmlns="http://www.w3.org/2000/svg">
<g clip-path="url(#clip0_109_24)">
<path d="M113.219 13.7898L114.278 184.863" stroke="#DBDBDB" stroke-width="16" stroke-miterlimit="10" stroke-linecap="round"/>
<path d="M91.5918 26.7424L112.239 47.9394" stroke="#DBDBDB" stroke-width="16" stroke-miterlimit="10" stroke-linecap="round"/>
<path d="M92.6553 59.385L113.633 80.9218" stroke="#DBDBDB" stroke-width="16" stroke-miterlimit="10" stroke-linecap="round"/>
<path d="M92.2666 195.594L112.747 174.23" stroke="#DBDBDB" stroke-width="16" stroke-miterlimit="10" stroke-linecap="round"/>
<path d="M93.084 166.606L113.889 144.902" stroke="#DBDBDB" stroke-width="16" stroke-miterlimit="10" stroke-linecap="round"/>
<path d="M44.4614 42.5317L113.825 111.845" stroke="#DBDBDB" stroke-width="16" stroke-miterlimit="10" stroke-linecap="round"/>
<path d="M39.2515 68.0972L70.1711 68.2252" stroke="#DBDBDB" stroke-width="16" stroke-miterlimit="10" stroke-linecap="round"/>
<path d="M70.9736 36.7794L71.1066 66.5606" stroke="#DBDBDB" stroke-width="16" stroke-miterlimit="10" stroke-linecap="round"/>
<path d="M45.0181 181.642L113.825 111.772" stroke="#DBDBDB" stroke-width="16" stroke-miterlimit="10" stroke-linecap="round"/>
<path d="M39.6011 156.116L70.5207 155.746" stroke="#DBDBDB" stroke-width="16" stroke-miterlimit="10" stroke-linecap="round"/>
<path d="M71.5746 187.182L71.4712 157.401" stroke="#DBDBDB" stroke-width="16" stroke-miterlimit="10" stroke-linecap="round"/>
<path d="M14.7729 112.244L113.825 111.845" stroke="#DBDBDB" stroke-width="16" stroke-miterlimit="10" stroke-linecap="round"/>
<path d="M30.8457 89.4124L51.7345 109.93" stroke="#DBDBDB" stroke-width="16" stroke-miterlimit="10" stroke-linecap="round"/>
<path d="M61.5439 90.6239L81.9009 110.929" stroke="#DBDBDB" stroke-width="16" stroke-miterlimit="10" stroke-linecap="round"/>
<path d="M31.0278 134.047L51.7492 113.362" stroke="#DBDBDB" stroke-width="16" stroke-miterlimit="10" stroke-linecap="round"/>
<path d="M61.8838 135.116L82.8416 113.988" stroke="#DBDBDB" stroke-width="16" stroke-miterlimit="10" stroke-linecap="round"/>
<path d="M113.795 13.7898L114.14 205.676" stroke="#DBDBDB" stroke-width="16" stroke-miterlimit="10" stroke-linecap="round"/>
<path d="M135.526 26.5652L115.046 47.9296" stroke="#DBDBDB" stroke-width="16" stroke-miterlimit="10" stroke-linecap="round"/>
<path d="M134.724 59.2175L113.918 80.9218" stroke="#DBDBDB" stroke-width="16" stroke-miterlimit="10" stroke-linecap="round"/>
<path d="M136.201 195.417L115.553 174.22" stroke="#DBDBDB" stroke-width="16" stroke-miterlimit="10" stroke-linecap="round"/>
<path d="M135.152 166.439L114.175 144.902" stroke="#DBDBDB" stroke-width="16" stroke-miterlimit="10" stroke-linecap="round"/>
<path d="M188.379 129.634L188.349 130.033L186.704 154.249L186.675 154.702L186.537 155.141L179.151 179.204L179.141 179.219C178.412 180.992 177.668 182.711 176.91 184.365H176.9L164.836 200.534L164.338 201.209L163.605 201.618L146.714 211.088C146.69 211.103 146.665 211.113 146.64 211.128L146.197 211.374L145.621 211.497L142.248 212.231L88.1597 212.447L128.046 194.196L128.888 193.811L129.47 193.087L137.723 182.893L138.461 181.982L138.57 180.913C138.579 180.879 138.584 180.849 138.584 180.815L142.44 143.744L142.534 142.878L142.273 142.119C142.273 142.095 142.263 142.08 142.258 142.055L137.934 129.408L132.134 109.275V109.265L131.823 108.191C131.823 108.191 131.941 107.753 132.134 107.088C132.143 107.073 132.143 107.049 132.148 107.024C132.198 106.871 132.242 106.694 132.301 106.512C132.355 106.32 132.419 106.113 132.483 105.896C132.513 105.793 132.547 105.679 132.577 105.571C132.641 105.354 132.715 105.128 132.784 104.896C132.961 104.33 133.143 103.754 133.325 103.217C133.355 103.114 133.399 103.005 133.438 102.902C133.478 102.779 133.517 102.661 133.567 102.537C133.616 102.409 133.665 102.276 133.709 102.158C133.724 102.119 133.734 102.084 133.759 102.045C133.783 101.966 133.813 101.892 133.837 101.828C133.956 101.538 134.079 101.301 134.172 101.129C134.207 101.07 134.236 101.025 134.271 100.981C134.325 100.902 134.384 100.853 134.433 100.843H134.512C135.595 100.922 144.065 103.783 144.065 103.783C144.065 103.783 140.815 98.7698 138.51 95.081C138.461 95.0022 138.412 94.9136 138.363 94.8298C138.289 94.7166 138.215 94.5934 138.151 94.4851C138.013 94.2684 137.88 94.0566 137.762 93.8547C137.378 93.2342 137.053 92.6826 136.802 92.2492C136.718 92.1014 136.649 91.9734 136.58 91.8601C136.418 91.5695 136.319 91.3676 136.295 91.2789C136.285 91.2543 136.28 91.2149 136.26 91.1509C136.186 90.8357 135.999 90.0329 135.733 88.8953C135.709 88.782 135.674 88.6687 135.649 88.5456C135.59 88.3043 135.536 88.0531 135.467 87.7872C135.408 87.5261 135.344 87.2454 135.28 86.9647C135.172 86.5264 135.068 86.0683 134.95 85.5906C134.886 85.2853 134.812 84.9602 134.738 84.6352C134.679 84.4086 134.63 84.1821 134.576 83.9457C134.345 82.9903 134.113 81.9905 133.877 80.9563C133.827 80.7543 133.778 80.5524 133.729 80.3406C133.517 79.4098 133.291 78.4642 133.069 77.5088C132.995 77.1837 132.921 76.8636 132.838 76.5287C132.651 75.7112 132.459 74.9035 132.276 74.1106C132.227 73.9234 132.188 73.7363 132.143 73.5541C132.06 73.1896 131.971 72.8252 131.887 72.4706C131.804 72.1061 131.725 71.7614 131.641 71.4117C131.567 71.0965 131.493 70.7813 131.42 70.4661C131.38 70.274 131.331 70.0869 131.287 69.8997C131.173 69.4171 131.065 68.9443 130.957 68.4912C130.794 67.7869 130.641 67.1418 130.504 66.5606C130.469 66.4227 130.445 66.2947 130.415 66.1666C130.415 66.1519 130.405 66.1322 130.405 66.1174C130.346 65.8908 130.297 65.6741 130.257 65.4771C130.159 65.0733 130.085 64.7335 130.021 64.4577C129.908 63.9652 129.839 63.6894 129.839 63.6894L129.972 62.9063L130.597 59.1978L130.77 58.1636L131.439 57.351L141.987 44.4821L143.075 43.1524L144.735 43.0489C144.75 43.0391 144.774 43.0391 144.789 43.0391L152.919 42.5269L154.278 42.4382L155.371 43.1868C155.381 43.1967 155.396 43.2016 155.406 43.2114L162.27 47.9246L162.447 48.0477L162.61 48.1906L164.348 49.6878L164.777 50.0571L165.062 50.5004C165.072 50.5102 165.077 50.525 165.087 50.5348L171.705 60.7787L171.902 61.0792L172.035 61.3944C172.035 61.4042 172.045 61.4042 172.045 61.4091L178.205 76.2431L183.509 91.077V91.0869L183.666 91.5154L183.715 91.9783L185.528 108.181L188.315 129.24C188.325 129.319 188.329 129.393 188.339 129.477L188.379 129.634Z" fill="#F5F5F5"/>
<path d="M164.841 200.534L164.343 201.209L163.61 201.617L146.719 211.088C146.695 211.103 146.67 211.113 146.646 211.128L146.202 211.374L145.626 211.497L142.253 212.231H142.219C141.879 212.383 149.467 212.378 158.489 212.319C159.838 212.305 168.884 201.938 176.896 184.37L164.841 200.534ZM193.545 26.4371C193.249 25.0138 192.225 22.2854 189.054 21.9061C187.975 21.8618 184.543 21.3841 181.007 20.8276C176.694 20.1479 172.212 19.3599 171.656 19.0841C170.932 18.7246 170.656 14.4498 165.112 10.9137C163.92 10.1601 162.482 9.42632 160.749 8.77623C159.848 8.44133 158.863 8.12613 157.794 7.84049C156.79 7.56961 155.736 7.43664 154.687 7.39231C153.658 7.33814 152.259 7.30367 150.6 7.37754C146.129 7.57454 139.757 8.56938 133.636 12.332C126.599 16.6512 119.892 24.6296 116.8 39.2666C116.415 40.8967 114.914 47.3484 113.894 49.6681C113.894 49.6681 92.7542 92.1458 110.482 173.334C110.482 173.334 112.146 182.489 108.645 192.098C105.651 200.307 98.9047 208.837 84.1367 212.314C84.5257 212.354 86.4413 212.482 89.3959 212.433L88.1648 212.438L128.052 194.186L128.894 193.802L129.475 193.078L137.728 182.883L138.466 181.972L138.575 180.903C138.585 180.869 138.589 180.839 138.589 180.805L142.445 143.735L142.539 142.868L142.278 142.109C142.278 142.085 142.268 142.07 142.263 142.045L137.939 129.398L132.139 109.265V109.255L132.882 108.255C132.882 108.255 131.947 107.743 132.139 107.078C132.149 107.063 132.149 107.039 132.153 107.014C132.203 106.861 132.247 106.684 132.306 106.502C132.36 106.31 132.424 106.103 132.488 105.886C132.518 105.783 132.552 105.67 132.582 105.561C132.646 105.345 132.72 105.118 132.789 104.887C132.966 104.32 133.148 103.744 133.33 103.207C133.36 103.104 133.404 102.995 133.444 102.892C133.483 102.769 133.522 102.651 133.572 102.528C133.621 102.399 133.67 102.267 133.714 102.148C133.729 102.109 133.739 102.074 133.764 102.035C133.788 101.956 133.818 101.882 133.842 101.818C133.961 101.528 134.084 101.291 134.177 101.119C134.212 101.06 134.241 101.016 134.276 100.971C134.33 100.892 134.389 100.843 134.438 100.833H134.517C135.6 100.912 144.07 103.774 144.07 103.774C144.07 103.774 140.82 98.7599 138.516 95.0712C138.466 94.9924 138.417 94.9037 138.368 94.82C138.294 94.7067 138.22 94.5836 138.156 94.4753C138.018 94.2586 137.885 94.0468 137.767 93.8449C137.383 93.2243 137.058 92.6727 136.807 92.2393C136.718 92.0916 136.644 91.9635 136.585 91.8503C136.423 91.5597 136.324 91.3578 136.3 91.2691C136.29 91.2445 136.285 91.2051 136.265 91.1411C136.191 90.8259 136.004 90.0231 135.738 88.8854C135.714 88.7722 135.679 88.6589 135.655 88.5358C135.596 88.2944 135.541 88.0433 135.472 87.7773C135.413 87.5163 135.349 87.2356 135.285 86.9548C135.177 86.5165 135.074 86.0585 134.955 85.5808C134.891 85.2754 134.817 84.9504 134.744 84.6254C134.685 84.3988 134.635 84.1722 134.581 83.9359C134.36 82.9804 134.118 81.9807 133.882 80.9464C133.833 80.7445 133.783 80.5426 133.734 80.3308C133.522 79.4 133.296 78.4544 133.074 77.499C133 77.1739 132.927 76.8538 132.843 76.5189C132.656 75.7013 132.464 74.8937 132.281 74.1007C132.232 73.9136 132.193 73.7264 132.148 73.5442C132.065 73.1798 131.976 72.8153 131.892 72.4607C131.809 72.0963 131.73 71.7515 131.646 71.4019C131.572 71.0768 131.499 70.7616 131.425 70.4563C131.385 70.2642 131.336 70.0771 131.292 69.8899C131.178 69.4073 131.07 68.9345 130.962 68.4814C130.799 67.7771 130.647 67.1319 130.509 66.5508C130.484 66.4129 130.45 66.2848 130.42 66.1568C130.42 66.142 130.41 66.1223 130.41 66.1075C130.351 65.881 130.302 65.6643 130.263 65.4673C130.164 65.0635 130.09 64.7236 130.026 64.4478C129.913 63.9553 129.844 63.6795 129.844 63.6795L129.977 62.8965L130.602 59.188L130.775 58.1538L131.282 57.5431C131.336 57.479 131.385 57.4052 131.444 57.3411L141.992 44.4722L143.08 43.1425L144.74 43.0391C144.755 43.0292 144.779 43.0292 144.794 43.0292L152.924 42.517L154.283 42.4284L155.376 43.177C155.386 43.1868 155.401 43.1918 155.411 43.2016L162.275 47.9148L162.423 48.1118L162.615 48.1807L164.353 49.6779L164.624 50.2394L165.072 50.4905C165.082 50.5004 165.087 50.5152 165.097 50.525L171.715 60.7689L171.912 61.0693L172.045 61.3845C172.045 61.3944 172.055 61.3944 172.055 61.3993L178.215 76.2332L183.519 91.0672V91.077L183.676 91.5055L183.725 91.9685L185.538 108.172L188.325 129.231C188.335 129.309 188.34 129.383 188.349 129.467L188.374 129.62L188.344 130.019L186.7 154.235L186.67 154.688L186.532 155.126L179.146 179.189C190.226 152.156 197.513 110.998 175.467 64.9551C175.467 64.9551 169.923 54.79 161.015 44.3639C161 44.3393 160.975 44.29 160.926 44.2408C159.503 42.6303 159.606 39.6901 159.626 39.3897V39.3651C159.976 36.0604 161.217 31.9481 166.579 30.2736C167.79 29.8796 182.076 28.4169 189.393 27.6979C190.905 27.5452 192.116 27.427 192.865 27.3581C193.348 27.3285 193.663 26.9148 193.545 26.4371ZM158.961 21.0738C158.065 21.0787 157.331 20.3499 157.326 19.4437C157.321 18.5375 158.05 17.7987 158.946 17.7938C159.853 17.7889 160.581 18.5227 160.586 19.4289C160.591 20.3351 159.867 21.0738 158.961 21.0738Z" fill="#1D1D1B"/>
<path d="M160.591 19.4337C160.596 20.3399 159.867 21.0688 158.961 21.0737C158.065 21.0786 157.331 20.3497 157.326 19.4436C157.321 18.5374 158.05 17.7986 158.946 17.7937C159.852 17.7937 160.586 18.5275 160.591 19.4337Z" fill="#1D1D1B"/>
<path d="M188.349 129.482C188.359 129.659 188.359 129.846 188.344 130.033L186.7 154.249C186.675 154.55 186.621 154.85 186.532 155.141L179.136 179.219C178.407 180.992 177.664 182.711 176.905 184.365H176.895L164.831 200.534C164.782 201.617 164.363 201.982 163.6 201.617L146.71 211.088C146.685 211.103 146.66 211.113 146.636 211.128C146.321 211.29 145.976 211.423 145.616 211.497L142.243 212.231H142.209C142.219 212.231 144.622 210.734 145.749 209.975C185.621 183.228 183.849 140.725 183.799 134.333C183.799 134.254 183.799 134.18 183.804 134.096C186.355 89.6832 173.158 63.4333 165.215 51.8892C165.215 51.8892 165.215 51.8646 165.19 51.8399C165.151 51.7661 165.102 51.702 165.053 51.6528C159.217 43.3395 148.857 45.7675 146.439 46.4767C146.375 46.5013 146.325 46.5161 146.276 46.5161L146.237 46.5407C146.148 46.5653 146.099 46.5899 146.05 46.5899L145.936 46.6392C119.764 55.2332 140.032 77.4792 142.155 80.577C142.283 80.7691 142.425 80.9464 142.588 81.1089C178.038 117.849 154.549 148.783 154.79 146.153C152.579 124.813 134.409 105.561 135.029 106.571C161.079 154.914 143.208 185.587 141.977 187.34C137.994 194.284 132.478 199.332 126.431 202.982C113.702 210.67 101.165 212.039 92.1041 212.319C91.789 212.329 89.6715 212.433 89.3761 212.438L88.145 212.442L128.032 194.191C128.583 193.939 129.071 193.565 129.45 193.083L137.703 182.888C138.161 182.322 138.456 181.637 138.555 180.908C138.565 180.874 138.57 180.844 138.57 180.81L142.425 143.739C142.489 143.188 142.43 142.641 142.258 142.114C142.258 142.09 142.248 142.075 142.243 142.05L137.92 129.403L132.119 109.27V109.26C131.912 108.551 131.912 107.797 132.119 107.083C132.129 107.068 132.129 107.044 132.134 107.019C132.183 106.866 132.227 106.689 132.286 106.507C132.34 106.315 132.405 106.108 132.469 105.891C132.498 105.788 132.533 105.675 132.562 105.566C132.626 105.349 132.7 105.123 132.769 104.891C132.946 104.325 133.128 103.749 133.311 103.212C133.34 103.109 133.384 103 133.424 102.897C133.463 102.774 133.503 102.656 133.552 102.532C133.601 102.404 133.65 102.271 133.695 102.153C133.709 102.114 133.719 102.079 133.744 102.04C133.769 101.961 133.798 101.887 133.823 101.823C133.941 101.533 134.064 101.296 134.158 101.124C134.192 101.065 134.222 101.02 134.256 100.976C134.31 100.897 134.369 100.848 134.419 100.838H134.497C137.718 101.075 139.963 97.8537 138.496 95.0761C138.447 94.9973 138.397 94.9086 138.348 94.8249C138.274 94.7116 138.2 94.5885 138.136 94.4801C137.998 94.2634 137.866 94.0517 137.747 93.8497C137.363 93.2292 137.038 92.6776 136.787 92.2442C136.703 92.0965 136.634 91.9684 136.566 91.8551C136.403 91.5646 136.305 91.3626 136.28 91.274C136.27 91.2494 136.265 91.21 136.245 91.1459C136.172 90.8307 135.984 90.028 135.719 88.8903C135.694 88.777 135.659 88.6638 135.635 88.5406C135.576 88.2993 135.522 88.0482 135.453 87.7822C135.394 87.5212 135.33 87.2405 135.266 86.9597C135.157 86.5214 135.054 86.0634 134.936 85.5857C134.872 85.2803 134.798 84.9553 134.724 84.6302C134.665 84.4037 134.616 84.1771 134.561 83.9407C134.34 82.9853 134.098 81.9855 133.862 80.9513C133.813 80.7494 133.764 80.5475 133.714 80.3357C133.503 79.4049 133.276 78.4593 133.055 77.5038C132.981 77.1788 132.907 76.8587 132.823 76.5238C132.636 75.7062 132.444 74.8985 132.262 74.1056C132.212 73.9185 132.173 73.7313 132.129 73.5491C132.045 73.1847 131.956 72.8202 131.873 72.4656C131.789 72.1012 131.71 71.7564 131.626 71.4068C131.553 71.0817 131.479 70.7665 131.405 70.4612C131.365 70.2691 131.316 70.0819 131.272 69.8948C131.159 69.4121 131.05 68.9394 130.942 68.4863C130.779 67.782 130.627 67.1368 130.489 66.5557C130.464 66.4178 130.43 66.2897 130.4 66.1617C130.4 66.1469 130.39 66.1272 130.39 66.1124C130.331 65.8859 130.282 65.6692 130.243 65.4722C130.144 65.0683 129.539 64.2902 129.47 64.0144C129.347 63.5071 129.868 63.4185 129.957 62.8964L129.568 59.7888C129.676 59.1092 130.075 57.7055 130.518 57.1736L141.5 42.4875C142.174 41.6502 143.652 43.1178 144.72 43.039C144.735 43.0292 145.267 41.8078 145.286 41.8078L154.244 41.399C155.11 41.3449 154.643 42.6992 155.362 43.1819C155.371 43.1917 155.357 42.1329 155.366 42.1378L162.26 47.9197C162.384 47.9985 162.497 48.0871 162.6 48.1856L164.339 49.6828C164.614 49.9241 164.86 50.1999 165.053 50.4954C165.062 50.5053 165.067 50.52 165.077 50.5299L171.695 60.7738C171.823 60.9659 171.932 61.1776 172.02 61.3894C172.02 61.3993 172.03 61.3993 172.03 61.4042L178.191 76.2381L183.494 91.0721V91.0819C183.602 91.3725 183.666 91.6631 183.701 91.9733L185.513 108.176L188.3 129.235C188.335 129.324 188.344 129.398 188.349 129.482Z" fill="#1D1D1B"/>
<path d="M160.591 19.4337C160.596 20.3399 159.867 21.0688 158.961 21.0737C158.065 21.0786 157.331 20.3497 157.326 19.4436C157.321 18.5374 158.05 17.7986 158.946 17.7937C159.852 17.7937 160.586 18.5275 160.591 19.4337Z" fill="#F5F5F5"/>
<path d="M68.7876 219.52C69.3884 219.766 69.9891 220.007 70.5948 220.249C70.0187 220.032 69.4671 219.815 68.9599 219.618C68.891 219.594 68.8368 219.559 68.7876 219.52Z" fill="#1D1D1B"/>
<path d="M173.183 191.93C173.183 191.93 165.328 210.024 189.378 212.191L154.874 212.329L173.183 191.93Z" fill="#1D1D1B"/>
<path d="M172.567 228.902C172.217 231.901 171.877 234.9 171.513 237.9C171.355 239.205 170.976 239.52 169.642 239.54C168.869 239.554 168.091 239.554 167.317 239.55C165.796 239.535 165.362 239.067 165.574 237.604C165.988 234.762 166.426 231.926 166.864 229.089C167.401 225.597 167.963 222.105 168.465 218.609C168.613 217.565 168.908 216.752 170.085 216.56C171.262 216.368 172.138 216.762 172.69 217.929C174.669 222.12 176.605 226.331 178.569 230.532C178.737 230.887 178.801 231.31 179.279 231.645C179.84 230.355 180.396 229.094 180.938 227.833C182.287 224.691 183.632 221.544 184.976 218.397C185.414 217.368 185.976 216.506 187.261 216.456C188.531 216.407 189.216 216.885 189.423 218.156C190.166 222.77 190.87 227.395 191.594 232.014C191.88 233.832 192.175 235.649 192.451 237.471C192.678 238.978 192.289 239.431 190.777 239.461C190.299 239.471 189.817 239.466 189.339 239.466C187.379 239.471 187.039 239.16 186.818 237.245C186.498 234.462 186.163 231.684 185.833 228.907C185.813 228.739 185.862 228.527 185.513 228.399C184.759 230.251 184.006 232.108 183.257 233.965C182.75 235.225 182.243 236.491 181.746 237.757C181.293 238.909 180.593 239.707 179.234 239.712C177.88 239.717 177.176 238.939 176.708 237.781C175.482 234.748 174.226 231.724 172.985 228.695C172.66 228.409 172.695 228.813 172.567 228.902Z" fill="black"/>
<path d="M99.8009 225.361C98.3532 220.042 93.552 216.575 87.6576 216.565C86.8993 216.653 86.1163 216.688 85.358 216.826C80.6799 217.722 77.2674 220.283 75.864 224.893C74.5098 229.345 75.4011 233.472 78.7939 236.797C81.847 239.786 85.6337 240.623 89.8145 240.111C96.9399 239.269 101.687 232.285 99.8009 225.361ZM87.761 234.743C84.2205 234.758 81.5367 232.093 81.5121 228.523C81.4776 224.952 84.1171 222.204 87.6232 222.16C91.213 222.105 93.9607 224.794 93.9952 228.39C94.0346 231.99 91.3558 234.728 87.761 234.743Z" fill="#43BCFF"/>
<path d="M148.162 231.236C147.886 230.754 147.788 230.497 148.433 230.158C151.122 228.72 152.392 226.361 152.082 223.548C151.732 220.298 150.024 218.2 146.985 217.313C145.887 217.003 144.755 216.816 143.602 216.821C140.835 216.841 138.077 216.841 135.31 216.855C133.586 216.86 133.148 217.299 133.143 219.008C133.143 222.105 133.168 225.188 133.182 228.286C133.197 231.423 133.197 234.551 133.222 237.678C133.237 239.2 133.724 239.663 135.216 239.678C135.945 239.687 136.684 239.683 137.422 239.668C138.86 239.643 139.333 239.175 139.338 237.727C139.353 235.92 139.323 234.112 139.328 232.32C139.328 232.034 139.22 231.699 139.471 231.473C139.894 231.103 141.731 231.497 142.017 232.009C143.208 234.171 144.41 236.319 145.582 238.491C146.02 239.284 146.611 239.683 147.542 239.633C148.502 239.589 149.462 239.623 150.413 239.614C152.136 239.594 152.461 239.032 151.629 237.516C150.481 235.417 149.334 233.319 148.162 231.236ZM143.834 227.099C142.494 227.4 141.13 227.183 139.766 227.242C139.353 227.267 139.298 227.001 139.298 226.686L139.289 224.479C139.279 221.879 139.279 221.879 141.889 221.869C142.376 221.869 142.849 221.854 143.326 221.884C144.804 221.963 145.794 222.943 145.892 224.386C145.995 225.73 145.227 226.789 143.834 227.099Z" fill="black"/>
<path d="M58.1164 231.625C57.8801 231.192 57.6486 230.896 58.343 230.527C61.1793 228.995 62.371 226.631 61.982 223.593C61.5881 220.5 59.7858 218.446 56.7179 217.624C55.6494 217.343 54.5611 217.18 53.4433 217.18C50.6758 217.2 47.9084 217.19 45.1409 217.215C43.5356 217.22 43.1368 217.634 43.1318 219.274C43.1318 222.401 43.1565 225.538 43.1712 228.665C43.186 231.847 43.186 235.014 43.2106 238.185C43.2254 239.589 43.6834 240.022 45.0868 240.037C45.8599 240.047 46.6379 240.042 47.411 240.027C48.7948 240.003 49.2577 239.535 49.2626 238.151C49.2773 236.304 49.2478 234.462 49.2527 232.615C49.2527 232.339 49.1345 232.024 49.4497 231.812C50.0406 231.428 51.6902 231.867 52.0497 232.522C52.7637 233.807 53.4531 235.102 54.177 236.393C56.6441 240.746 55.4376 239.914 60.3176 239.983C62.1248 239.998 62.4301 239.436 61.5437 237.821C60.4062 235.747 59.2687 233.694 58.1164 231.625ZM53.7584 227.469C52.419 227.759 51.055 227.543 49.691 227.602C49.2773 227.626 49.2133 227.36 49.2232 227.035L49.2133 224.775C49.297 224.065 48.8145 222.938 49.3955 222.396C49.952 221.874 51.0747 222.273 51.9512 222.238C52.3944 222.214 52.8376 222.214 53.2709 222.243C54.7187 222.322 55.6838 223.248 55.8168 224.652C55.9596 226.075 55.2062 227.149 53.7584 227.469Z" fill="#43BCFF"/>
<path d="M196.076 227.976C196.066 224.952 196.046 221.928 196.041 218.909C196.036 217.028 196.445 216.609 198.277 216.599C202.448 216.58 206.618 216.56 210.789 216.55C212.38 216.545 212.798 216.974 212.818 218.584C212.823 218.84 212.823 219.101 212.823 219.357C212.818 221.155 212.404 221.578 210.622 221.588C208.11 221.603 205.604 221.633 203.093 221.603C202.393 221.593 202.098 221.756 202.167 222.514C202.256 223.499 201.881 224.789 202.379 225.4C202.91 226.055 204.245 225.568 205.23 225.602C206.338 225.636 207.446 225.587 208.549 225.602C209.928 225.622 210.376 226.085 210.41 227.488C210.42 227.784 210.42 228.079 210.415 228.375C210.39 229.808 209.908 230.31 208.495 230.325C206.687 230.345 204.875 230.374 203.068 230.335C202.384 230.32 202.152 230.537 202.201 231.212C202.256 231.98 202.26 232.763 202.211 233.531C202.162 234.226 202.423 234.403 203.093 234.388C205.638 234.344 208.184 234.349 210.73 234.344C212.606 234.344 212.986 234.728 213.005 236.619C213.01 237.023 213.01 237.432 212.99 237.836C212.946 238.801 212.439 239.352 211.459 239.357C206.884 239.387 202.305 239.416 197.73 239.407C196.602 239.407 196.14 238.816 196.125 237.481C196.085 234.314 196.085 231.148 196.076 227.976Z" fill="black"/>
<path d="M123.536 217.111C122.797 216.978 122.068 216.905 121.339 216.91C118.498 216.919 115.657 216.919 112.815 216.944C111.358 216.949 110.905 217.407 110.9 218.865C110.9 221.992 110.925 225.119 110.939 228.257C110.954 231.458 110.954 234.669 110.979 237.87C110.993 239.328 111.442 239.747 112.919 239.766C113.692 239.776 114.47 239.771 115.243 239.756C116.543 239.722 117.026 239.254 117.04 237.919C117.055 236.304 117.07 234.674 117.011 233.058C116.986 232.33 117.218 232.118 117.947 232.123C119.709 232.147 121.487 232.216 123.25 231.965C127.475 231.369 129.957 228.715 130.026 224.721C130.085 220.584 127.761 217.865 123.536 217.111ZM121.167 227.38C120.069 227.424 118.961 227.365 117.848 227.424C117.149 227.469 116.937 227.208 116.991 226.538C117.031 225.912 116.996 225.292 116.996 224.666C116.986 221.963 116.986 221.963 119.645 221.953C120.123 221.953 120.596 221.938 121.083 221.958C122.782 222.002 123.782 222.992 123.821 224.632C123.846 226.262 122.856 227.311 121.167 227.38Z" fill="black"/>
<path d="M23.7845 228.636C23.7697 225.543 23.7549 222.445 23.75 219.352C23.75 217.776 24.2178 217.299 25.7788 217.289C29.9448 217.264 34.1156 217.249 38.2816 217.24C39.7342 217.235 40.1774 217.683 40.2316 219.145C40.2365 219.328 40.2365 219.515 40.2365 219.697C40.2464 221.938 39.9214 222.273 37.7104 222.283C35.3861 222.293 33.0618 222.327 30.7425 222.297C30.0629 222.288 29.8364 222.49 29.8807 223.174C29.9448 224.09 29.9349 225.016 29.8955 225.937C29.866 226.577 30.1171 226.759 30.7326 226.745C32.3921 226.705 34.0516 226.705 35.7111 226.72C37.2573 226.73 37.666 227.153 37.6907 228.7C37.6956 229.069 37.7054 229.439 37.6907 229.803C37.6414 230.906 37.1638 231.409 36.0361 231.433C34.3027 231.473 32.5694 231.492 30.836 231.448C30.0974 231.428 29.8906 231.67 29.9152 232.389C29.9694 234.231 29.9497 236.073 29.9497 237.914C29.9497 239.653 29.5213 240.091 27.8273 240.106C27.1625 240.111 26.4978 240.116 25.8379 240.111C24.3212 240.101 23.8386 239.643 23.8239 238.141C23.8042 234.974 23.7992 231.808 23.7845 228.636Z" fill="#43BCFF"/>
<path d="M155.77 228.193C155.756 225.065 155.741 221.933 155.736 218.806C155.736 217.244 156.213 216.782 157.789 216.762C158.454 216.752 159.114 216.752 159.779 216.752C161.394 216.757 161.852 217.215 161.862 218.87C161.881 221.298 161.881 223.731 161.891 226.159C161.906 229.916 161.926 233.669 161.936 237.427C161.94 239.131 161.492 239.564 159.774 239.579C159.109 239.584 158.449 239.594 157.784 239.584C156.302 239.569 155.82 239.096 155.81 237.58C155.79 234.452 155.785 231.32 155.77 228.193Z" fill="black"/>
<path d="M71.8258 228.523C71.8406 231.65 71.8603 234.777 71.8603 237.91C71.8603 239.49 71.4122 239.924 69.8167 239.939C69.0781 239.948 68.3444 239.958 67.6057 239.944C66.286 239.924 65.8084 239.466 65.7985 238.141C65.769 234.644 65.764 231.148 65.7493 227.651C65.7394 224.78 65.7197 221.908 65.7197 219.037C65.7197 217.584 66.1728 217.141 67.6303 217.116C68.369 217.107 69.1027 217.102 69.8414 217.107C71.2842 217.116 71.7667 217.574 71.7815 219.017C71.816 222.189 71.816 225.356 71.8258 228.523Z" fill="#43BCFF"/>
<path d="M172.567 228.902C172.503 228.631 172.409 228.281 172.734 228.198C172.941 228.143 173.025 228.454 172.976 228.69C172.838 228.759 172.705 228.828 172.567 228.902Z" fill="#8C8C8C"/>
<path d="M140.451 243.869C138.294 243.869 136.674 245.405 136.694 247.444C136.703 249.473 138.314 250.985 140.456 250.98C142.588 250.97 144.198 249.434 144.193 247.414C144.183 245.385 142.583 243.869 140.451 243.869ZM140.441 249.69C139.141 249.695 138.156 248.725 138.151 247.429C138.146 246.129 139.116 245.164 140.426 245.159C141.746 245.154 142.721 246.1 142.736 247.4C142.75 248.695 141.761 249.685 140.441 249.69Z" fill="black"/>
<path d="M201.414 243.824C200.389 243.672 199.341 243.79 198.297 243.765C197.799 243.755 197.696 243.873 197.696 244.361L197.72 250.099C197.72 250.478 197.848 250.616 198.188 250.616C199.129 250.621 200.069 250.64 201.01 250.596C202.817 250.517 204.038 249.38 204.26 247.616C204.506 245.671 203.334 244.115 201.414 243.824ZM202.674 248.055C202.359 248.922 201.699 249.35 200.788 249.414C200.325 249.449 199.838 249.429 199.36 249.439C199.148 249.449 199.158 249.325 199.158 249.178L199.148 247.193C199.144 246.528 199.153 245.863 199.139 245.198C199.129 244.986 199.203 244.922 199.4 244.932C199.951 244.962 200.498 244.888 201.039 244.967C202 245.119 202.669 245.814 202.778 246.779C202.832 247.213 202.822 247.641 202.674 248.055Z" fill="black"/>
<path d="M177.526 243.721C175.413 243.78 173.813 245.376 173.877 247.351C173.936 249.389 175.6 250.882 177.737 250.832C179.86 250.773 181.441 249.212 181.386 247.218C181.337 245.149 179.692 243.657 177.526 243.721ZM177.654 249.542C176.344 249.547 175.359 248.592 175.354 247.291C175.349 245.991 176.295 245.026 177.614 245.011C178.944 245.006 179.919 245.962 179.929 247.272C179.934 248.557 178.954 249.537 177.654 249.542Z" fill="black"/>
<path d="M208.859 243.593C206.727 243.593 205.107 245.12 205.092 247.124C205.077 249.163 206.712 250.709 208.854 250.699C210.986 250.69 212.597 249.163 212.601 247.144C212.597 245.12 210.991 243.598 208.859 243.593ZM208.81 249.414C207.51 249.399 206.545 248.409 206.569 247.109C206.584 245.799 207.564 244.863 208.903 244.883C210.203 244.908 211.159 245.888 211.144 247.198C211.129 248.468 210.12 249.434 208.81 249.414Z" fill="black"/>
<path d="M156.834 243.992C155.809 243.839 154.761 243.957 153.717 243.943C153.264 243.933 153.155 244.051 153.16 244.494C153.155 245.454 153.17 246.405 153.17 247.365C153.175 248.35 153.165 249.321 153.18 250.301C153.18 250.65 153.298 250.788 153.638 250.783C154.578 250.788 155.519 250.808 156.459 250.764C158.296 250.695 159.611 249.419 159.709 247.676C159.828 245.661 158.769 244.282 156.834 243.992ZM158.055 248.405C157.71 249.178 157.065 249.547 156.233 249.596C155.755 249.631 155.283 249.611 154.805 249.621C154.593 249.631 154.613 249.508 154.613 249.36L154.603 247.341C154.598 246.686 154.598 246.031 154.583 245.376C154.583 245.174 154.637 245.1 154.844 245.11C155.381 245.139 155.913 245.075 156.44 245.144C157.434 245.277 158.089 245.952 158.222 246.942C158.296 247.439 158.267 247.937 158.055 248.405Z" fill="black"/>
<path d="M150.068 248.203C150.063 247.508 150.063 246.814 150.058 246.114C150.058 245.563 150.048 245.011 150.053 244.455C150.058 244.066 150.171 243.957 150.56 243.947C151.481 243.928 151.486 243.928 151.486 244.854C151.491 246.622 151.501 248.395 151.506 250.163C151.506 250.424 151.54 250.7 151.22 250.818C150.89 250.936 150.615 250.818 150.398 250.567C149.708 249.774 149.029 248.971 148.344 248.173C147.877 247.626 147.414 247.08 146.892 246.474C146.882 246.671 146.872 246.784 146.872 246.902C146.877 248.006 146.882 249.114 146.882 250.217C146.882 250.719 146.793 250.813 146.291 250.813C145.449 250.818 145.444 250.813 145.439 249.966C145.434 248.198 145.424 246.425 145.419 244.657C145.419 244.396 145.351 244.095 145.685 243.957C145.981 243.834 146.286 243.918 146.557 244.233C147.497 245.317 148.423 246.41 149.359 247.503C149.566 247.745 149.768 247.981 149.974 248.217C150.024 248.217 150.048 248.212 150.068 248.203Z" fill="black"/>
<path d="M184.075 246.415C184.08 247.631 184.085 248.848 184.09 250.064C184.09 250.601 184.021 250.675 183.489 250.675C182.671 250.68 182.662 250.67 182.657 249.842C182.652 248.06 182.642 246.282 182.637 244.499C182.637 244.233 182.573 243.933 182.918 243.814C183.262 243.696 183.538 243.819 183.765 244.08C184.4 244.814 185.03 245.553 185.661 246.292C186.173 246.892 186.69 247.493 187.207 248.099C187.315 247.996 187.266 247.877 187.266 247.779C187.266 246.641 187.256 245.504 187.256 244.366C187.256 243.913 187.354 243.814 187.812 243.809C188.679 243.8 188.679 243.8 188.684 244.661C188.689 246.454 188.699 248.247 188.704 250.04C188.704 250.286 188.738 250.552 188.438 250.67C188.108 250.798 187.832 250.69 187.615 250.443C187 249.734 186.394 249.02 185.784 248.311C185.237 247.671 184.69 247.025 184.139 246.385C184.119 246.39 184.1 246.405 184.075 246.415Z" fill="black"/>
<path d="M125.013 248.326C124.92 248.158 124.905 248.084 125.117 247.986C126.033 247.572 126.392 246.912 126.304 245.888C126.225 245.041 125.673 244.43 124.777 244.194C124.472 244.11 124.152 244.061 123.836 244.061L121.355 244.071C120.921 244.071 120.818 244.179 120.818 244.622L120.838 250.03C120.842 250.936 120.842 250.936 121.773 250.911C122.162 250.911 122.271 250.803 122.28 250.404C122.29 249.99 122.266 249.582 122.285 249.158C122.285 248.872 122.147 248.493 122.344 248.321C122.532 248.153 122.906 248.286 123.201 248.252C123.378 248.242 123.487 248.316 123.571 248.473C123.871 249.02 124.166 249.557 124.477 250.099C125.038 251.069 124.797 250.892 125.895 250.897C126.328 250.906 126.402 250.759 126.19 250.379C125.796 249.695 125.407 249.01 125.013 248.326ZM123.812 247.242C123.378 247.252 122.935 247.247 122.492 247.257C122.315 247.257 122.251 247.193 122.261 247.025C122.271 246.75 122.261 246.489 122.256 246.213C122.256 245.972 122.266 245.715 122.251 245.474C122.241 245.297 122.315 245.243 122.492 245.243C122.925 245.253 123.369 245.228 123.812 245.248C124.457 245.277 124.851 245.676 124.851 246.267C124.846 246.833 124.447 247.218 123.812 247.242Z" fill="black"/>
<path d="M119.715 250.31C118.799 248.39 117.873 246.474 116.957 244.553C116.829 244.277 116.701 244.036 116.332 244.026C115.943 244.016 115.815 244.282 115.677 244.568C115.268 245.459 114.849 246.336 114.431 247.222C113.919 248.301 113.407 249.38 112.899 250.463C112.742 250.813 112.826 250.96 113.21 250.946C114.342 250.931 114.096 251.113 114.539 250.104C114.569 250.04 114.603 249.975 114.623 249.911C114.677 249.71 114.8 249.646 115.012 249.646C115.751 249.655 116.489 249.65 117.218 249.646C117.883 249.641 117.883 249.641 118.149 250.266C118.425 250.921 118.425 250.921 119.134 250.916H119.335C119.897 250.921 119.961 250.828 119.715 250.31ZM117.248 248.621L115.376 248.631C115.283 248.631 115.174 248.631 115.238 248.483C115.583 247.671 115.938 246.863 116.317 245.976C116.691 246.843 117.031 247.641 117.371 248.434C117.415 248.542 117.405 248.621 117.248 248.621Z" fill="black"/>
<path d="M196.597 249.98C195.672 248.05 194.756 246.119 193.83 244.194C193.702 243.928 193.544 243.711 193.205 243.721C192.875 243.721 192.732 243.933 192.614 244.189C192.028 245.425 191.451 246.656 190.865 247.892C190.511 248.656 190.142 249.419 189.797 250.177C189.639 250.517 189.723 250.63 190.092 250.64C190.314 250.65 190.545 250.64 190.767 250.65C190.979 250.65 191.107 250.566 191.19 250.374C191.304 250.099 191.432 249.833 191.535 249.562C191.599 249.394 191.693 249.35 191.86 249.35C192.599 249.36 193.328 249.355 194.066 249.35C194.775 249.345 194.775 249.335 195.051 249.99C195.381 250.768 195.361 250.611 196.016 250.621H196.184C196.804 250.616 196.863 250.532 196.597 249.98ZM194.076 248.321C193.485 248.311 192.894 248.316 192.313 248.316C192.156 248.326 192.072 248.306 192.156 248.114C192.5 247.321 192.835 246.528 193.214 245.656C193.579 246.508 193.909 247.291 194.248 248.084C194.332 248.281 194.258 248.321 194.076 248.321Z" fill="black"/>
<path d="M129.612 247.479C129.593 245.144 131.769 243.465 134.133 243.982C134.812 244.13 135.408 244.435 135.906 244.922C136.162 245.174 136.157 245.336 135.901 245.578C135.837 245.637 135.763 245.696 135.694 245.755C135.33 246.06 135.251 246.065 134.881 245.76C134.207 245.213 133.448 245.036 132.621 245.297C131.755 245.573 131.242 246.183 131.114 247.08C130.981 248.015 131.257 248.813 132.07 249.345C132.858 249.862 133.69 249.847 134.517 249.404C134.606 249.355 134.699 249.306 134.768 249.237C135.295 248.715 135.394 248.843 135.999 249.384C136.201 249.567 136.117 249.764 135.945 249.941C135.172 250.714 134.222 251.044 133.143 251.005C131.114 250.916 129.627 249.424 129.612 247.479Z" fill="black"/>
<path d="M167.456 243.76C168.303 243.775 169.184 244.075 169.908 244.765C170.198 245.046 170.194 245.198 169.898 245.464C169.839 245.518 169.78 245.568 169.716 245.617C169.351 245.922 169.273 245.927 168.903 245.622C168.229 245.075 167.47 244.898 166.643 245.159C165.776 245.435 165.264 246.045 165.136 246.942C165.003 247.878 165.279 248.675 166.092 249.207C166.88 249.719 167.712 249.71 168.539 249.261C168.628 249.212 168.721 249.163 168.79 249.094C169.317 248.572 169.415 248.7 170.021 249.242C170.223 249.424 170.139 249.621 169.962 249.798C169.189 250.571 168.239 250.901 167.16 250.862C165.018 250.773 163.536 249.153 163.644 247.04C163.743 245.198 165.338 243.775 167.456 243.76Z" fill="black"/>
<path d="M162.413 247.336C162.418 248.291 162.423 249.252 162.423 250.207C162.423 250.66 162.319 250.759 161.862 250.764C160.975 250.773 160.975 250.773 160.975 249.887C160.97 248.153 160.96 246.42 160.955 244.686C160.951 243.943 160.985 243.913 161.743 243.913C161.788 243.913 161.832 243.913 161.881 243.913C162.29 243.918 162.403 244.026 162.408 244.435C162.408 245.4 162.408 246.366 162.413 247.336Z" fill="#010101"/>
<path d="M172.651 247.257C172.656 248.237 172.661 249.217 172.661 250.192C172.661 250.616 172.567 250.709 172.149 250.719C171.228 250.734 171.228 250.734 171.223 249.813C171.218 248.035 171.208 246.257 171.203 244.479C171.203 243.967 171.297 243.874 171.814 243.869C172.636 243.864 172.636 243.864 172.641 244.691C172.646 245.548 172.651 246.4 172.651 247.257Z" fill="black"/>
</g>
<defs>
<clipPath id="clip0_109_24">
<rect width="213" height="251" fill="white"/>
</clipPath>
</defs>
</svg>
